<?xml version="1.0" standalone="no"?>
<!DOCTYPE svg PUBLIC "-//W3C//DTD SVG 20010904//EN"
 "http://www.w3.org/TR/2001/REC-SVG-20010904/DTD/svg10.dtd">
<svg version="1.0" xmlns="http://www.w3.org/2000/svg"
 width="512.000000pt" height="512.000000pt" viewBox="0 0 512.000000 512.000000"
 preserveAspectRatio="xMidYMid meet">
<metadata>
Created by potrace 1.11, written by Peter Selinger 2001-2013
</metadata>
<g transform="translate(0.000000,512.000000) scale(0.100000,-0.100000)"
fill="#000000" stroke="none">
<path d="M0 2560 l0 -2560 2560 0 2560 0 0 2560 0 2560 -2560 0 -2560 0 0
-2560z m3200 1734 c197 -29 398 -113 490 -205 149 -150 189 -206 220 -308 74
-239 -65 -508 -355 -684 -33 -20 -87 -46 -119 -58 -75 -26 -108 -18 -221 51
-101 60 -107 81 -43 143 24 23 64 56 90 74 69 47 134 149 154 245 l17 75 -27
35 c-33 44 -123 93 -207 113 -84 19 -255 19 -360 -1 -183 -34 -432 -134 -574
-230 -394 -265 -594 -630 -636 -1166 -26 -322 42 -606 191 -799 80 -104 183
-161 362 -201 91 -20 129 -23 328 -23 213 0 230 2 325 27 349 94 647 294 899
602 42 52 90 86 120 86 10 0 24 7 30 15 6 9 28 18 48 21 30 5 41 2 61 -19 37
-36 43 -97 22 -215 -44 -247 -180 -505 -360 -685 -198 -196 -444 -315 -735
-354 -152 -20 -416 -13 -547 15 -187 41 -375 116 -499 199 -266 180 -345 242
-423 332 -207 241 -316 526 -341 899 -31 441 73 835 315 1197 323 484 864 798
1435 834 127 8 202 5 340 -15z"/>
</g>
</svg>
